<svg width="32" height="40" viewBox="0 0 32 40" fill="none" xmlns="http://www.w3.org/2000/svg">
<path d="M11.9145 0.0538261C11.4455 0.147616 10.7655 0.444618 10.3669 0.725988C9.96052 1.01517 9.21801 1.85928 9.21801 2.03905C9.21801 2.17973 8.55367 2.82845 8.24885 2.98476C8.03 3.09419 7.67829 3.16453 7.0921 3.21142C6.12294 3.28958 5.45859 3.49279 4.86459 3.87577C3.8329 4.56356 3.33269 5.54054 3.20763 7.0959C3.16074 7.68208 3.0904 8.03379 2.98097 8.25264C2.82466 8.55745 2.17594 9.2218 2.03526 9.2218C1.99618 9.2218 1.75389 9.37812 1.50378 9.5657C0.393933 10.402 -0.184439 11.887 0.0656679 13.247C0.112563 13.5049 0.315775 14.052 0.518986 14.4584C0.870699 15.1462 0.894146 15.24 0.894146 15.7871C0.894146 16.3342 0.870699 16.428 0.511171 17.1236C-0.137544 18.421 -0.168807 19.4918 0.41738 20.672C0.730014 21.3051 1.30057 21.9304 1.85549 22.243C2.80121 22.7823 3.11384 23.2903 3.20763 24.4314C3.27798 25.3771 3.37177 25.7523 3.6844 26.3697C4.18461 27.3545 5.25538 28.1049 6.45121 28.3003C6.77166 28.3472 7.02958 28.4019 7.02958 28.4175C7.02958 28.4253 6.1542 29.965 5.07562 31.8252C2.91063 35.5768 2.90282 35.5924 3.34832 36.0379C3.48119 36.1708 3.66095 36.2646 3.77819 36.2646C3.88761 36.2646 4.9662 35.9989 6.17765 35.6706C7.38911 35.3501 8.40516 35.1079 8.43643 35.1469C8.46769 35.1782 8.74906 36.1943 9.06169 37.3901C9.44467 38.8438 9.69478 39.641 9.8042 39.7583C10.0309 40.024 10.5233 40.0787 10.789 39.8677C10.8984 39.7817 12.0552 37.8668 13.3604 35.6003C14.6656 33.3415 15.7599 31.4969 15.7833 31.4969C15.8146 31.4969 16.901 33.3415 18.1984 35.6003C19.5193 37.8903 20.6604 39.7817 20.7776 39.8677C21.0434 40.0787 21.5358 40.0318 21.7624 39.7661C21.864 39.6489 22.122 38.8204 22.4971 37.3979C22.8176 36.1943 23.1068 35.1782 23.1302 35.1469C23.1615 35.1079 24.1853 35.3423 25.3968 35.6706C26.6082 35.9989 27.6868 36.2646 27.7884 36.2646C27.9057 36.2646 28.0854 36.1708 28.2183 36.0379C28.6638 35.5924 28.656 35.5768 26.491 31.8252C25.4124 29.9572 24.5371 28.4253 24.5371 28.4175C24.5371 28.4019 24.795 28.3472 25.1154 28.3003C27.0694 27.9798 28.359 26.4088 28.3668 24.3064C28.3668 23.4232 28.7342 22.8604 29.7189 22.243C30.3442 21.8522 30.8288 21.3129 31.1492 20.6642C31.7354 19.4918 31.7042 18.4132 31.0555 17.1236C30.6959 16.428 30.6725 16.3342 30.6725 15.7871C30.6725 15.24 30.6959 15.1462 31.0476 14.4584C31.4697 13.6143 31.6104 13.0047 31.5479 12.27C31.4462 11.0663 30.7819 10.0034 29.7033 9.32341C28.6951 8.68251 28.4528 8.29953 28.359 7.14279C28.2887 6.20489 28.1949 5.82191 27.8979 5.23573C27.257 3.97738 26.1862 3.35211 24.4589 3.21142C23.7633 3.15671 23.5366 3.102 23.2709 2.94569C22.8566 2.70339 22.5206 2.34387 22.2392 1.85928C21.7702 1.02299 20.7386 0.280485 19.785 0.0850894C18.8393 -0.110306 18.0499 0.0225627 17.0182 0.569671C16.432 0.874489 16.3304 0.897936 15.7833 0.897936C15.2362 0.897936 15.1346 0.874489 14.5484 0.569671C14.2045 0.382091 13.7121 0.178879 13.462 0.116353C13.0478 0.00693107 12.274 -0.0243323 11.9145 0.0538261ZM13.8137 1.94526C15.2831 2.68776 16.2835 2.68776 17.7451 1.94526C18.5189 1.55447 19.0034 1.49194 19.6443 1.6717C20.168 1.82802 20.6682 2.24226 20.9887 2.79718C21.3247 3.37556 21.5748 3.65693 22.0594 4.02427C22.7003 4.50885 23.2396 4.68862 24.2635 4.76678C25.2639 4.8293 25.6703 4.9778 26.1315 5.43894C26.5848 5.90007 26.7333 6.29086 26.8036 7.29911C26.874 8.3308 27.0537 8.87009 27.5461 9.51099C27.9135 9.99557 28.1949 10.2457 28.7732 10.5818C29.3282 10.9022 29.7424 11.4024 29.8987 11.9261C30.0785 12.567 30.016 13.0516 29.6252 13.8253C28.8827 15.2869 28.8827 16.2873 29.6252 17.7489C30.0081 18.5148 30.0785 19.015 29.8987 19.6325C29.7502 20.1483 29.3125 20.6798 28.7732 20.9925C28.1949 21.3285 27.9135 21.5708 27.5461 22.0632C27.0537 22.7041 26.874 23.2434 26.8036 24.2751C26.7333 25.2833 26.5848 25.6741 26.1315 26.1353C25.6703 26.5886 25.2796 26.7371 24.2713 26.8074C23.2396 26.8778 22.7003 27.0575 22.0594 27.5499C21.567 27.9173 21.3247 28.1987 20.9887 28.777C20.676 29.3163 20.1446 29.754 19.6287 29.9025C18.9956 30.0901 18.5189 30.0119 17.6904 29.5977C16.2679 28.8864 15.2753 28.8943 13.8215 29.629C13.0556 30.0119 12.5554 30.0823 11.9379 29.9025C11.4221 29.754 10.8906 29.3163 10.578 28.777C10.2419 28.1987 9.9996 27.9173 9.5072 27.5499C8.8663 27.0575 8.32701 26.8778 7.29532 26.8074C6.28707 26.7371 5.89628 26.5886 5.43515 26.1353C4.98183 25.6741 4.83333 25.2833 4.76299 24.2751C4.72391 23.6967 4.64575 23.259 4.52851 22.9542C4.2784 22.2899 3.70785 21.5865 3.11384 21.2191C1.55849 20.2421 1.20678 19.2104 1.94147 17.7489C2.68397 16.2873 2.68397 15.2869 1.94147 13.8253C1.55068 13.0516 1.48815 12.567 1.66791 11.9261C1.82423 11.4024 2.23847 10.9022 2.79339 10.5818C3.37177 10.2457 3.65314 9.99557 4.02048 9.51099C4.51288 8.86227 4.69264 8.3308 4.76299 7.30692C4.82551 6.31431 4.97401 5.90007 5.43515 5.43894C5.89628 4.9778 6.30271 4.8293 7.30313 4.76678C8.32701 4.68862 8.8663 4.50885 9.5072 4.02427C9.99178 3.65693 10.2419 3.37556 10.5702 2.81282C11.2892 1.5701 12.4538 1.25746 13.8137 1.94526ZM9.29617 29.668C9.92144 30.7779 11.3048 31.5829 12.5788 31.5673C12.8133 31.5673 13.2432 31.5048 13.5324 31.4266L14.0482 31.2937L13.8684 31.6142C13.7668 31.7861 13.0087 33.0836 12.188 34.506C11.3752 35.9207 10.6718 37.0696 10.6405 37.0618C10.6092 37.0462 10.3826 36.2959 10.1403 35.3892C9.67915 33.6776 9.56191 33.4274 9.1633 33.3493C9.04606 33.3258 8.23322 33.5056 7.27187 33.7635C6.34178 34.0136 5.56802 34.2012 5.55238 34.1934C5.53675 34.1778 6.22455 32.9663 7.06866 31.4969L8.61619 28.8317L8.83504 29.0428C8.96009 29.1678 9.17112 29.4492 9.29617 29.668ZM24.498 31.5048C25.3499 32.9663 26.0299 34.1778 26.0142 34.1856C25.9986 34.2012 25.2248 34.0136 24.2948 33.7635C23.3569 33.5134 22.5127 33.3258 22.4033 33.3493C22.0047 33.4274 21.8875 33.6776 21.4263 35.3892C21.1841 36.2959 20.9574 37.0462 20.9261 37.0618C20.8949 37.0696 20.1914 35.9207 19.3786 34.506C18.5579 33.0836 17.7998 31.7783 17.6904 31.5985L17.5028 31.2703L17.8311 31.3875C19.3942 31.9424 21.4185 31.1687 22.2548 29.6993C22.419 29.4101 22.8723 28.8396 22.9426 28.8396C22.9504 28.8396 23.6539 30.0354 24.498 31.5048Z" fill="currentColor"/>
<path d="M14.3765 4.29781C12.8367 4.50883 10.9375 5.14192 10.492 5.59523C10.1246 5.95476 10.1637 6.40027 10.578 6.73635C10.8281 6.93956 11.0782 6.9083 11.9379 6.5644C13.4464 5.95476 14.7516 5.73592 16.2913 5.81408C18.8471 5.94695 20.9808 6.90048 22.8254 8.74502C24.2791 10.1909 25.1701 11.8245 25.6 13.8331C25.8032 14.7632 25.8032 16.811 25.6 17.741C25.1701 19.7497 24.2791 21.3832 22.8254 22.8292C20.7933 24.8691 18.1671 25.9008 15.3534 25.7679C12.782 25.6507 10.578 24.6659 8.74124 22.8292C7.59231 21.688 6.86544 20.5391 6.34178 19.0697C5.92754 17.8817 5.81812 17.2174 5.82593 15.748C5.83375 14.2317 5.9588 13.5127 6.44338 12.2621C6.97486 10.8944 6.99049 10.6677 6.53717 10.3942C5.95099 10.0346 5.54456 10.3004 5.11469 11.3164C3.66095 14.7788 4.02047 18.89 6.06041 22.0163C7.81897 24.7362 10.4842 26.526 13.7121 27.1748C14.7673 27.378 16.9557 27.3623 18.0186 27.1357C19.574 26.7996 20.8011 26.3072 22.0125 25.51C24.7324 23.7514 26.5223 21.0862 27.1632 17.8583C27.3586 16.8813 27.3586 14.6929 27.1632 13.7159C26.5223 10.4879 24.7324 7.83056 22.0125 6.06418C20.8245 5.2826 19.5427 4.76676 18.0577 4.45412C17.198 4.26654 15.1893 4.18838 14.3765 4.29781Z" fill="currentColor"/>
<path d="M7.81117 7.47891C7.10775 7.83844 7.35004 8.90921 8.13944 8.90921C8.8116 8.90921 9.16331 8.09636 8.70218 7.62741C8.58494 7.51799 8.45207 7.4242 8.38954 7.4242C8.33483 7.4242 8.24886 7.40857 8.18633 7.38512C8.13162 7.36168 7.95967 7.40857 7.81117 7.47891Z" fill="currentColor"/>
<path d="M16.7212 9.73767C16.2679 9.93306 15.9475 10.2301 15.5723 10.8084C15.1268 11.4728 14.4234 12.2387 13.8997 12.6295L13.5246 12.9031L13.165 12.7858C12.8993 12.6921 12.4772 12.6608 11.4612 12.6608C10.3201 12.6608 10.07 12.6842 9.80422 12.8093C9.43687 12.9812 9.10861 13.3095 8.99137 13.6221C8.93666 13.7706 8.9054 15.0524 8.9054 17.3347C8.9054 21.266 8.9054 21.2504 9.4994 21.6959L9.78859 21.9226L11.4377 21.946L13.0869 21.9695L13.4386 21.7428L13.7903 21.5239L14.3765 21.7193C14.9549 21.9147 15.0017 21.9226 17.7842 21.946C20.4963 21.9695 20.6135 21.9616 21.0434 21.8053C21.5827 21.6021 22.1611 21.0706 22.4268 20.5157C22.6222 20.1249 22.6222 20.1093 22.6222 17.7802C22.6222 15.1228 22.6066 15.0603 21.9657 14.3568C21.4811 13.8332 20.8558 13.5831 19.9023 13.5362C19.3864 13.5127 19.1441 13.4736 19.1676 13.4111C19.5271 12.4185 19.6287 11.9808 19.5975 11.5353C19.5037 10.402 18.6439 9.61261 17.5028 9.61261C17.2214 9.62043 16.8697 9.67514 16.7212 9.73767ZM17.9249 11.3477C18.1046 11.5978 18.0812 11.7385 17.7686 12.6842C17.5263 13.4033 17.4559 13.544 17.2527 13.6456C16.7994 13.8801 16.7134 14.5053 17.0886 14.8883C17.2918 15.0837 17.2996 15.0837 18.7455 15.0915C20.3869 15.0915 20.6526 15.1462 20.9183 15.5448C21.0903 15.8028 21.0981 15.8575 21.0981 17.7176C21.0981 19.8514 21.059 20.0311 20.6057 20.2734C20.379 20.3985 20.082 20.4063 17.7373 20.3828C15.1502 20.3594 15.1112 20.3594 14.65 20.164L14.1811 19.9686L14.1576 17.1862L14.142 14.4037L14.6657 14.0051C15.3378 13.5127 16.2679 12.5436 16.7603 11.8401C17.2136 11.1914 17.2371 11.1758 17.5575 11.1758C17.7295 11.1758 17.8467 11.2305 17.9249 11.3477ZM12.5788 17.3112V20.3985H11.5237H10.4686V17.3112V14.224H11.5237H12.5788V17.3112Z" fill="currentColor"/>
</svg>
