<svg width="23" height="40" viewBox="0 0 23 40" fill="none" xmlns="http://www.w3.org/2000/svg">
<path d="M14.2461 10.0704C12.2929 10.0704 10.7019 8.48124 10.7019 6.52624C10.7019 4.57106 12.2929 2.98203 14.2461 2.98203C16.1995 2.98203 17.7903 4.57106 17.7903 6.52624C17.7903 8.48142 16.1995 10.0704 14.2461 10.0704ZM14.2461 4.67013C13.2224 4.67013 12.3898 5.50257 12.3898 6.52641C12.3898 7.5499 13.2223 8.38252 14.2461 8.38252C15.27 8.38252 16.1024 7.55008 16.1024 6.52641C16.1022 5.50257 15.2698 4.67013 14.2461 4.67013Z" fill="currentColor"/>
<path d="M10.936 19.325C7.28619 19.325 4.31726 16.356 4.31726 12.708V8.42367C4.31726 7.95702 4.69493 7.57953 5.1614 7.57953H12.3257C12.7921 7.57953 13.1698 7.95702 13.1698 8.42367C13.1698 8.89013 12.7921 9.26762 12.3257 9.26762H6.00553V12.708C6.00553 15.4263 8.2177 17.637 10.936 17.637C13.6543 17.637 15.8649 15.4263 15.8649 12.708V8.42367C15.8649 7.95702 16.2424 7.57953 16.709 7.57953C17.1739 7.57953 17.5532 7.95702 17.5532 8.42367V12.708C17.553 16.356 14.5841 19.325 10.936 19.325Z" fill="currentColor"/>
<path d="M21.5506 40H0.844137C0.377673 40 0 39.6223 0 39.1559V31.4739C0 25.3005 5.02299 20.2776 11.1981 20.2776C17.3717 20.2776 22.3945 25.3005 22.3945 31.4739V39.1559C22.3943 39.6225 22.0169 40 21.5506 40ZM1.6881 38.3119H20.7064V31.4741C20.7064 26.2303 16.4402 21.9658 11.1981 21.9658C5.95433 21.9658 1.68827 26.2305 1.68827 31.4741V38.3119H1.6881Z" fill="currentColor"/>
<path d="M12.08 9.26759H5.1614C4.69493 9.26759 4.31726 8.8901 4.31726 8.42364V5.53713C4.31726 5.07049 4.69493 4.69299 5.1614 4.69299H11.7355C12.2021 4.69299 12.5796 5.07049 12.5796 5.53713C12.5796 6.00359 12.2021 6.38108 11.7355 6.38108H6.00553V7.57968H12.08C12.5465 7.57968 12.924 7.95717 12.924 8.42381C12.924 8.8901 12.5465 9.26759 12.08 9.26759Z" fill="currentColor"/>
<path d="M11.7355 6.38109H5.16143C4.88938 6.38109 4.6356 6.24924 4.47574 6.03019C4.3173 5.80918 4.27458 5.52562 4.36195 5.26686C6.13565 3.04232e-06 6.90216 0 7.40992 0H13.5799C13.9822 0 14.823 3.38035e-06 16.3477 3.86056C16.5193 4.29406 16.3066 4.78374 15.8729 4.9553C15.4394 5.12668 14.9497 4.91418 14.7766 4.4805C14.3051 3.28528 13.682 2.06046 13.3655 1.68793H7.68817C7.37838 2.13472 6.83765 3.39233 6.35613 4.693H11.7352C12.2018 4.693 12.5793 5.0705 12.5793 5.53714C12.5795 6.0036 12.2022 6.38109 11.7355 6.38109Z" fill="currentColor"/>
<path d="M12.6438 40C12.1789 40 11.7998 39.6223 11.7998 39.1559V29.6045C11.7998 29.1661 12.136 28.8001 12.5745 28.7639C15.5748 28.5133 18.1976 27.333 19.4156 25.6812C19.6926 25.3071 20.2201 25.2277 20.596 25.5031C20.9701 25.7801 21.0509 26.3093 20.7741 26.6834C19.3646 28.594 16.6776 29.9407 13.4879 30.3629V39.1557C13.4877 39.6225 13.1104 40 12.6438 40Z" fill="currentColor"/>
<path d="M10.0689 40C9.60223 40 9.22474 39.6223 9.22474 39.1559V30.363C5.79094 29.9178 3.02335 28.4573 1.73083 26.3853C1.48519 25.9898 1.60553 25.4687 2.00111 25.2215C2.39668 24.9743 2.91773 25.0964 3.16336 25.4918C4.25456 27.2426 6.9268 28.497 10.138 28.7641C10.5765 28.8003 10.9127 29.1664 10.9127 29.6047V39.156C10.9128 39.6225 10.5339 40 10.0689 40Z" fill="currentColor"/>
<path d="M13.3428 22.1883C12.8762 22.1883 12.4987 21.8108 12.4987 21.3441V17.955C12.4987 17.4883 12.8762 17.1108 13.3428 17.1108C13.8077 17.1108 14.1852 17.4883 14.1852 17.955V21.3441C14.1852 21.8109 13.8077 22.1883 13.3428 22.1883Z" fill="currentColor"/>
<path d="M8.54751 22.2988C8.08264 22.2988 7.70337 21.9214 7.70337 21.4549V18.0638C7.70337 17.5973 8.08264 17.2198 8.54751 17.2198C9.01397 17.2198 9.39147 17.5973 9.39147 18.0638V21.4549C9.39129 21.9214 9.01379 22.2988 8.54751 22.2988Z" fill="currentColor"/>
</svg>
