<svg width="40" height="40" viewBox="0 0 40 40" fill="none" xmlns="http://www.w3.org/2000/svg">
<path d="M4.99508 18.7947C4.91417 18.7947 4.83157 18.7827 4.7539 18.7581C4.54754 18.694 4.37599 18.5509 4.27597 18.3598L0.0940454 10.3969C-0.115563 9.99915 0.036864 9.50858 0.435427 9.29983L2.1198 8.41462C2.51034 8.20826 2.94389 8.10431 3.40424 8.10431C5.0427 8.10431 6.78119 9.40224 7.83538 11.4114C8.46557 12.6085 8.75932 13.904 8.66408 15.0582C8.55927 16.3482 7.98764 17.3278 7.05737 17.8159L5.37282 18.7018C5.25556 18.7629 5.12532 18.7947 4.99508 18.7947ZM1.91036 10.3603L5.33646 16.8841L6.30172 16.3768C6.86842 16.0792 7.00975 15.3401 7.04491 14.9258C7.11302 14.0875 6.87661 13.0818 6.39714 12.1673C5.51757 10.4931 4.23005 9.73031 3.40442 9.73031C3.20898 9.73031 3.03128 9.77162 2.87561 9.85338L1.91036 10.3603Z" fill="currentColor"/>
<path d="M13.2034 23.4994C12.9953 23.4994 12.7872 23.4199 12.6286 23.2611L6.62886 17.2602C6.31138 16.9427 6.31138 16.4282 6.62886 16.1107C6.94635 15.7932 7.46081 15.7932 7.77829 16.1107L13.7781 22.1112C14.0956 22.4289 14.0956 22.9435 13.7781 23.2611C13.6192 23.4199 13.4114 23.4994 13.2034 23.4994Z" fill="currentColor"/>
<path d="M13.0034 26.886C12.7953 26.886 12.5872 26.8064 12.4287 26.6477L4.37923 18.5977C4.06174 18.2802 4.06174 17.7658 4.37923 17.4483C4.69671 17.1308 5.21118 17.1308 5.52866 17.4483L13.5781 25.4981C13.8954 25.8155 13.8954 26.33 13.5781 26.6475C13.4194 26.8064 13.2113 26.886 13.0034 26.886Z" fill="currentColor"/>
<path d="M27.6433 27.2097H13.2035C12.7558 27.2097 12.3905 26.8462 12.3905 26.3969V22.8401C12.3905 22.3908 12.7558 22.0272 13.2035 22.0272H27.6433C28.0927 22.0272 28.4563 22.3908 28.4563 22.8401V26.3969C28.4561 26.8462 28.0925 27.2097 27.6433 27.2097ZM14.0163 25.5839H26.8304V23.6532H14.0163V25.5839V25.5839Z" fill="currentColor"/>
<path d="M37.8741 35.3401C37.3914 35.3401 36.9071 35.1783 36.5103 34.8448L27.1179 26.8938C26.7748 26.6033 26.7319 26.0905 27.0224 25.7474C27.3114 25.4045 27.8242 25.3632 28.1671 25.6522L37.5581 33.6016C37.7662 33.7761 38.0806 33.7475 38.2585 33.5364C38.4346 33.3268 38.4061 33.0126 38.1965 32.8347L27.1544 23.5025C26.8115 23.212 26.7686 22.6994 27.0591 22.3565C27.3479 22.0136 27.8609 21.9699 28.2038 22.2604L39.2444 31.5914C40.1383 32.3424 40.2559 33.6856 39.5033 34.5826C39.0822 35.0829 38.4806 35.3401 37.8741 35.3401Z" fill="currentColor"/>
<path d="M25.0234 34.6875H15.823C15.4784 34.6875 15.1706 34.4702 15.0563 34.1446L12.4365 26.6666C12.3493 26.4174 12.3891 26.141 12.5413 25.9268C12.6937 25.7124 12.9399 25.5837 13.2034 25.5837H27.6432C27.9067 25.5837 28.1544 25.7124 28.3068 25.9268C28.4594 26.141 28.4973 26.4174 28.4116 26.6666L25.7919 34.1446C25.6777 34.4702 25.3696 34.6875 25.0234 34.6875ZM16.4008 33.0619H24.4472L26.4985 27.2097H14.3496L16.4008 33.0619Z" fill="currentColor"/>
<path d="M25.0362 39.287H15.8229C15.3751 39.287 15.01 38.9234 15.01 38.4741V33.8747C15.01 33.4253 15.3751 33.0617 15.8229 33.0617H25.0362C25.4855 33.0617 25.8491 33.4253 25.8491 33.8747V38.4741C25.8491 38.9234 25.4855 39.287 25.0362 39.287ZM16.6358 37.6613H24.2232V34.6875H16.6358V37.6613Z" fill="currentColor"/>
<path d="M28.5228 11.3041C28.3084 11.3041 28.1003 11.2199 27.948 11.066L22.2261 5.34475C22.0404 5.15972 21.9563 4.89702 21.9991 4.63894C22.0404 4.38102 22.204 4.15879 22.4388 4.04204L26.5716 1.98436C26.886 1.828 27.2622 1.88996 27.5099 2.13747L31.1551 5.78274C31.4011 6.02956 31.4631 6.40678 31.3076 6.71949L29.2499 10.8529C29.134 11.0871 28.9118 11.2513 28.653 11.2935C28.6102 11.301 28.5656 11.3041 28.5228 11.3041ZM24.1741 4.99398L28.2971 9.11787L29.5911 6.51893L26.773 3.70082L24.1741 4.99398Z" fill="currentColor"/>
<path d="M30.5805 7.17063C30.3724 7.17063 30.1643 7.09126 30.0057 6.93252L26.3557 3.28247C26.0382 2.96498 26.0382 2.45052 26.3557 2.13303L28.2592 0.22864C28.5639 -0.0762134 29.1038 -0.0762134 29.4087 0.22864L33.0587 3.87937C33.3762 4.19686 33.3762 4.71132 33.0587 5.0288L31.1552 6.93235C30.9962 7.09126 30.7882 7.17063 30.5805 7.17063ZM28.0797 2.70775L30.5803 5.20837L31.3344 4.45426L28.8339 1.95296L28.0797 2.70775Z" fill="currentColor"/>
<path d="M17.7202 23.4994C17.2709 23.4994 16.9073 23.1357 16.9073 22.6859V17.9817C16.9073 17.5324 17.2709 17.1689 17.7202 17.1689H25.0361C25.4854 17.1689 25.849 17.5324 25.849 17.9817C25.849 18.4309 25.4854 18.7945 25.0361 18.7945H18.533V22.6857C18.5332 23.1357 18.1696 23.4994 17.7202 23.4994Z" fill="currentColor"/>
<path d="M39.1872 2.71407H30.5805C30.131 2.71407 29.7675 2.3505 29.7675 1.90124C29.7675 1.45198 30.131 1.08841 30.5805 1.08841H39.1872C39.6365 1.08841 40 1.45198 40 1.90124C40 2.3505 39.6363 2.71407 39.1872 2.71407Z" fill="currentColor"/>
</svg>
