<svg width="24" height="20" viewBox="0 0 24 20" fill="none" xmlns="http://www.w3.org/2000/svg">
<path d="M23.3072 17.7778L13.0427 0.740741C12.9148 0.516521 12.7301 0.329977 12.5072 0.199926C12.2842 0.0698745 12.0309 0.000913991 11.7728 0C11.5176 0.0140889 11.2694 0.0885918 11.0487 0.217374C10.8279 0.346157 10.6409 0.525535 10.503 0.740741L0.238434 17.7778C0.0833951 17.9937 0 18.2527 0 18.5185C0 18.7843 0.0833951 19.0434 0.238434 19.2593C0.366276 19.4835 0.550984 19.67 0.773929 19.8001C0.996875 19.9301 1.25017 19.9991 1.50828 20H22.0374C22.2926 19.9859 22.5408 19.9114 22.7615 19.7826C22.9823 19.6538 23.1693 19.4745 23.3072 19.2593C23.4124 19.0265 23.4668 18.774 23.4668 18.5185C23.4668 18.2631 23.4124 18.0106 23.3072 17.7778ZM12.9368 16.8254H10.8204V14.709H12.9368V16.8254ZM12.9368 12.5926H10.8204V6.24339H12.9368V12.5926Z" fill="currentColor"/>
</svg>
