<svg width="17" height="20" viewBox="0 0 17 20" fill="none" xmlns="http://www.w3.org/2000/svg">
<path d="M14.7368 9.47368H2.10526V4.21053H14.7368V9.47368ZM13.1579 15.7895C12.7391 15.7895 12.3375 15.6231 12.0414 15.327C11.7453 15.0309 11.5789 14.6293 11.5789 14.2105C11.5789 13.7918 11.7453 13.3902 12.0414 13.094C12.3375 12.7979 12.7391 12.6316 13.1579 12.6316C13.5767 12.6316 13.9783 12.7979 14.2744 13.094C14.5705 13.3902 14.7368 13.7918 14.7368 14.2105C14.7368 14.6293 14.5705 15.0309 14.2744 15.327C13.9783 15.6231 13.5767 15.7895 13.1579 15.7895V15.7895ZM3.68421 15.7895C3.26545 15.7895 2.86384 15.6231 2.56773 15.327C2.27162 15.0309 2.10526 14.6293 2.10526 14.2105C2.10526 13.7918 2.27162 13.3902 2.56773 13.094C2.86384 12.7979 3.26545 12.6316 3.68421 12.6316C4.10297 12.6316 4.50458 12.7979 4.80069 13.094C5.0968 13.3902 5.26316 13.7918 5.26316 14.2105C5.26316 14.6293 5.0968 15.0309 4.80069 15.327C4.50458 15.6231 4.10297 15.7895 3.68421 15.7895V15.7895ZM0 14.7368C0 15.6632 0.410526 16.4947 1.05263 17.0737V18.9474C1.05263 19.2265 1.16353 19.4943 1.36094 19.6917C1.55835 19.8891 1.82609 20 2.10526 20H3.15789C3.43707 20 3.70481 19.8891 3.90222 19.6917C4.09962 19.4943 4.21053 19.2265 4.21053 18.9474V17.8947H12.6316V18.9474C12.6316 19.2265 12.7425 19.4943 12.9399 19.6917C13.1373 19.8891 13.405 20 13.6842 20H14.7368C15.016 20 15.2838 19.8891 15.4812 19.6917C15.6786 19.4943 15.7895 19.2265 15.7895 18.9474V17.0737C16.4316 16.4947 16.8421 15.6632 16.8421 14.7368V4.21053C16.8421 0.526316 13.0737 0 8.42105 0C3.76842 0 0 0.526316 0 4.21053V14.7368Z" fill="currentColor"/>
</svg>
