<svg width="20" height="14" viewBox="0 0 20 14" fill="none" xmlns="http://www.w3.org/2000/svg">
<path d="M10 4.09091C10.7233 4.09091 11.417 4.37825 11.9285 4.88971C12.4399 5.40117 12.7273 6.09486 12.7273 6.81818C12.7273 7.5415 12.4399 8.23519 11.9285 8.74666C11.417 9.25812 10.7233 9.54545 10 9.54545C9.27668 9.54545 8.58299 9.25812 8.07153 8.74666C7.56006 8.23519 7.27273 7.5415 7.27273 6.81818C7.27273 6.09486 7.56006 5.40117 8.07153 4.88971C8.58299 4.37825 9.27668 4.09091 10 4.09091ZM10 0C14.5455 0 18.4273 2.82727 20 6.81818C18.4273 10.8091 14.5455 13.6364 10 13.6364C5.45455 13.6364 1.57273 10.8091 0 6.81818C1.57273 2.82727 5.45455 0 10 0ZM1.98182 6.81818C3.48182 9.87273 6.58182 11.8182 10 11.8182C13.4182 11.8182 16.5182 9.87273 18.0182 6.81818C16.5182 3.76364 13.4182 1.81818 10 1.81818C6.58182 1.81818 3.48182 3.76364 1.98182 6.81818Z" fill="currentColor"/>
</svg>
