<svg width="40" height="40" viewBox="0 0 40 40" fill="none" xmlns="http://www.w3.org/2000/svg">
<path d="M12.4137 0.175286C10.9201 0.495332 9.25587 1.46614 8.18905 2.65031C6.6635 4.32522 5.76737 6.78958 5.87405 8.98723C5.92739 10.3314 5.63935 10.2461 10.3867 10.2141L14.3553 10.1821L14.7393 9.88336C15.2941 9.4673 15.4541 9.17926 15.5608 8.43248C15.6141 8.08043 15.6781 7.73905 15.7208 7.67504C15.7635 7.60036 17.2037 7.56836 19.9881 7.56836C24.5861 7.56836 24.3087 7.52569 24.3087 8.19778C24.3087 8.94456 24.7781 9.702 25.4289 10.022C25.8449 10.2247 26.0903 10.2354 29.7282 10.2354C33.3874 10.2354 33.6007 10.2247 33.7928 10.0327C34.4222 9.40329 34.0061 6.26684 33.046 4.47458C31.9578 2.43695 30.2082 0.975402 28.0426 0.292636C26.8904 -0.0594152 24.8208 -0.0594152 23.6686 0.292636C22.7085 0.602014 22.0044 0.943397 21.1723 1.53015C20.6282 1.90354 20.4682 1.96755 19.9881 1.96755C19.508 1.96755 19.3373 1.90354 18.6546 1.4448C16.7556 0.164617 14.5366 -0.283448 12.4137 0.175286ZM16.1689 1.82886C16.5849 1.97821 17.257 2.3196 17.6624 2.57563C18.6759 3.24773 18.9639 3.38642 19.5934 3.47176C20.4042 3.57845 21.0869 3.36508 22.1964 2.65031C23.5406 1.78619 24.3514 1.54082 25.8556 1.54082C27.3065 1.54082 28.256 1.81819 29.3868 2.57563C30.6563 3.41842 31.5631 4.59193 32.0965 6.07481C32.3419 6.72557 32.6299 8.13377 32.6299 8.64585C32.6299 8.69919 31.2857 8.74186 29.3228 8.74186C26.165 8.74186 26.0156 8.73119 25.909 8.53917C25.8556 8.42182 25.8023 8.16578 25.8023 7.95241C25.8023 7.46168 25.6316 7.04562 25.2902 6.6829C24.7034 6.06414 24.7995 6.07481 19.9881 6.07481C16.0835 6.07481 15.4968 6.09615 15.1661 6.2455C14.6433 6.50154 14.2913 7.01361 14.1633 7.73905C13.9712 8.77387 14.3019 8.68852 10.6001 8.72053L7.31426 8.74186L7.38893 7.98442C7.69831 4.8373 9.93864 2.21291 12.8404 1.59416C13.6512 1.4128 15.3261 1.54082 16.1689 1.82886Z" fill="currentColor"/>
<path d="M15.7741 11.0462C15.0167 11.3769 14.654 11.889 14.5366 12.8064C14.4939 13.1265 14.4192 13.4465 14.3552 13.5105C14.2806 13.6172 13.3311 13.6492 10.28 13.6492C6.40742 13.6492 6.31141 13.6492 6.10871 13.8733C5.87401 14.14 5.87401 14.7374 6.13005 15.7722C6.3114 16.5296 6.97283 18.0339 7.35689 18.5673C7.61293 18.9407 7.57025 19.0047 6.97283 19.1967C6.40742 19.3781 5.66064 19.7515 4.62583 20.3809C3.527 21.0316 2.65221 21.3197 1.40403 21.4264C0.689255 21.4904 0.347872 21.565 0.219853 21.6931C0.0491618 21.8531 0.0384936 22.4612 0.00648894 28.5101C-0.0148475 32.756 0.0171572 35.4124 0.0918347 35.8925C0.315867 37.354 1.29734 38.7836 2.52419 39.4023C3.7617 40.0317 2.89758 39.9997 19.9881 39.9997C37.1532 39.9997 36.2784 40.0317 37.4733 39.381C38.2627 38.9542 39.0095 38.1435 39.4469 37.226L39.8309 36.4259L39.8629 29.1502L39.8949 21.8851L39.6069 21.6611C39.3829 21.4904 39.1695 21.437 38.6148 21.437C37.3132 21.437 36.1824 21.053 34.7315 20.1142C34.1981 19.7728 33.2166 19.3034 32.4912 19.058C32.3205 18.994 32.3312 18.9407 32.6299 18.4926C33.3447 17.4578 34.0168 15.5055 34.0168 14.4387C34.0168 13.6279 34.1448 13.6492 29.6641 13.6492H25.7062L25.5462 13.4145C25.4502 13.2865 25.3755 12.9878 25.3755 12.7638C25.3755 12.3264 25.0875 11.6756 24.7674 11.3876C24.234 10.8968 23.9886 10.8755 19.9667 10.8755C16.7983 10.8862 16.0835 10.9075 15.7741 11.0462ZM23.7539 12.4971C23.8286 12.5717 23.882 12.7744 23.882 12.9558C23.882 13.8946 24.5114 14.8014 25.3222 15.0254C25.5889 15.1001 26.9864 15.1428 29.088 15.1428H32.4379L32.3632 15.4842C32.1071 16.6683 31.4137 17.8098 30.1655 19.1647C29.1627 20.2422 28.6293 21.149 28.3626 22.2371C28.2986 22.5252 28.1919 23.4853 28.1492 24.3708C27.9892 27.1979 27.2531 28.9901 25.4929 30.8571C25.0021 31.3691 24.7461 31.5718 24.5861 31.5505C24.3834 31.5185 24.362 31.4438 24.3407 30.5584C24.2127 25.5123 22.8258 21.3837 20.9695 20.4876C20.3828 20.1995 19.5293 20.1888 18.9959 20.4662C17.2037 21.373 15.8488 25.1176 15.7101 29.4915C15.6781 30.3663 15.6354 31.1984 15.6034 31.3265C15.4221 32.2226 13.6725 30.3557 12.6697 28.2113C12.1042 27.0058 11.8375 25.811 11.7629 24.1574C11.6455 21.7144 11.2401 20.7116 9.63989 18.9833C9.10648 18.4073 8.50906 17.6391 8.31703 17.2871C7.97565 16.6363 7.55959 15.5482 7.55959 15.2921C7.55959 15.1855 8.29569 15.1428 11.1228 15.1214L14.686 15.0894L15.1447 14.7694C15.6888 14.3853 15.9875 13.8519 15.9875 13.2758C15.9875 13.0411 16.0622 12.7318 16.1582 12.6037L16.3182 12.369H19.9774C22.6764 12.369 23.6579 12.401 23.7539 12.4971ZM9.20249 20.7223C9.9386 21.6291 10.1413 22.2585 10.248 23.9867C10.376 26.3657 10.632 27.4752 11.4215 29.0861C11.9762 30.2276 12.595 31.1024 13.4911 32.0199C14.3659 32.9054 14.6433 33.0654 15.294 33.0654C15.8381 33.0654 16.2435 32.8947 16.5849 32.5106C17.0436 32.0092 17.097 31.7745 17.1716 29.8649C17.2783 27.0698 17.7157 24.9362 18.4945 23.304C19.2413 21.7464 19.9881 21.373 20.7242 22.1838C21.887 23.4747 22.6444 26.3124 22.7938 29.9823C22.8685 31.7639 22.8898 31.8812 23.1565 32.2866C23.6366 33.012 24.6287 33.2788 25.4395 32.8947C25.9943 32.628 27.3811 31.0811 28.0212 30.0143C29.056 28.286 29.6428 26.3017 29.6428 24.5308C29.6428 22.7386 30.0695 21.3517 30.8696 20.5836C31.211 20.2529 31.2324 20.2529 31.6804 20.3702C32.3632 20.5622 33.4087 21.053 34.4968 21.7037C35.5743 22.3545 36.7265 22.7706 37.7293 22.8879L38.4014 22.9626L38.3694 29.5875L38.3374 36.2125L38.0173 36.7886C37.836 37.1193 37.4733 37.546 37.1852 37.7807C36.1931 38.5595 37.3452 38.5168 19.764 38.4848L3.98573 38.4528L3.495 38.2288C2.78023 37.8981 2.17214 37.3007 1.83075 36.6072L1.53204 35.9991L1.50004 29.4809L1.46803 22.9733L2.27882 22.8452C3.2923 22.6852 4.57249 22.1945 5.43661 21.6291C6.46076 20.9676 8.06099 20.2742 8.5944 20.2635C8.74376 20.2635 8.96779 20.4342 9.20249 20.7223Z" fill="currentColor"/>
</svg>
