<svg width="34" height="40" viewBox="0 0 34 40" fill="none" xmlns="http://www.w3.org/2000/svg">
<path d="M19.3652 26.3009C19.3652 26.3009 19.3652 26.3009 19.3648 26.3009C19.207 26.3009 19.0568 26.2761 18.9192 26.2269C18.2987 26.0045 18.2207 25.3834 18.1125 24.5253C18.0296 23.8697 17.9165 22.9719 17.608 22.1895C17.3175 21.4531 16.9803 21.2586 16.8424 21.2586C16.6628 21.2586 16.3934 21.5502 16.2473 22.0905C16.0574 22.7924 15.9356 23.5434 15.8371 24.1463C15.6366 25.3819 15.5357 26.0013 14.9031 26.2269C14.3307 26.4311 13.5679 26.1924 13.0244 25.6322C12.5632 25.1577 12.0241 24.237 12.0748 22.5437C12.1077 21.4563 11.9582 20.6673 11.6304 20.1996C11.0036 19.3068 10.221 17.4107 10.1004 16.1193C10.0855 15.961 10.0778 15.8012 10.0778 15.6381C10.0778 12.9795 12.1146 10.8165 14.6185 10.8165C15.6404 10.8165 16.1991 11.22 16.5689 11.4868C16.7905 11.6466 16.8448 11.6779 16.9112 11.6779C16.964 11.6779 16.9973 11.6615 17.2061 11.5049C17.571 11.2315 18.1225 10.8163 19.2035 10.8163C21.7074 10.8163 23.7447 12.9793 23.7447 15.638C23.7447 15.8011 23.7369 15.9608 23.7221 16.1191C23.6015 17.4122 22.8185 19.3066 22.1917 20.1994C21.8643 20.6673 21.715 21.4563 21.7477 22.5435C21.7984 24.237 21.2593 25.1577 20.7981 25.632C20.3851 26.0574 19.863 26.3009 19.3652 26.3009ZM14.6183 12.5032C13.0448 12.5032 11.7643 13.91 11.7643 15.638C11.7643 15.7485 11.7696 15.8556 11.7795 15.9626C11.87 16.9296 12.5269 18.5421 13.0109 19.2308C13.5599 20.0133 13.8052 21.1136 13.7604 22.5945C13.7342 23.4742 13.9141 23.9947 14.1038 24.288C14.1274 24.1514 14.1504 24.008 14.1718 23.8762C14.2765 23.2337 14.4061 22.4348 14.6187 21.6507C14.9654 20.3676 15.8171 19.5719 16.8422 19.5719C17.8251 19.5719 18.6759 20.3 19.1767 21.5702C19.5437 22.5008 19.6785 23.466 19.7709 24.1993C19.9399 23.8945 20.0851 23.3904 20.0614 22.5947C20.0166 21.1138 20.2618 20.0134 20.8103 19.231C21.2947 18.5423 21.9516 16.9297 22.0421 15.9628C22.052 15.8558 22.0573 15.7486 22.0573 15.6381C22.0573 13.9101 20.7769 12.5034 19.203 12.5034C18.6849 12.5034 18.4991 12.6435 18.2183 12.8543C17.9317 13.0701 17.5387 13.3648 16.9107 13.3648C16.2864 13.3648 15.8787 13.0701 15.5809 12.8543C15.2885 12.6433 15.0949 12.5032 14.6183 12.5032Z" fill="currentColor"/>
<path d="M16.9111 40C16.7992 40 16.6865 39.9786 16.5808 39.9325L16.9099 39.1565L16.5792 39.9325C16.2002 39.7728 7.24894 35.9197 2.96679 28.3732C-1.35292 20.7628 0.29608 3.41191 0.368692 2.67711C0.404998 2.30643 0.678444 2.005 1.04204 1.93256L10.5935 0.0166711C10.8393 -0.0325634 11.0931 0.0281908 11.2879 0.18652C12.4356 1.10887 14.59 1.68214 16.9109 1.68214C19.232 1.68214 21.3863 1.10887 22.5339 0.18652C22.7287 0.0281908 22.982 -0.0325634 23.2282 0.0166711L32.78 1.93256C33.1436 2.005 33.417 2.30643 33.4533 2.67711C33.526 3.41173 35.1748 20.7628 30.8547 28.3732C26.5828 35.9015 17.6248 39.7694 17.2457 39.9308C17.1396 39.977 17.0255 40 16.9111 40ZM1.99396 3.46131C1.74017 6.63747 0.814104 21.1632 4.43354 27.5416C8.04023 33.8969 15.2687 37.483 16.9106 38.2343C18.5509 37.4814 25.7841 33.8903 29.3876 27.5416C33.0076 21.1632 32.0813 6.63747 31.8277 3.46131L23.2634 1.74325C21.7779 2.76619 19.4437 3.36922 16.9106 3.36922C14.3775 3.36922 12.0433 2.76637 10.5577 1.74325L1.99396 3.46131Z" fill="currentColor"/>
<path d="M16.9106 36.1255C16.7764 36.1255 16.6421 36.0942 16.5197 36.03C13.7605 34.587 8.72476 31.4505 6.00163 26.6519C2.99532 21.3559 3.43808 9.20879 3.64511 5.61273C3.66743 5.22877 3.9453 4.90927 4.32129 4.83347L9.9225 3.71012C10.1108 3.67381 10.3047 3.70019 10.474 3.7875C12.2119 4.68045 14.4976 5.17121 16.9104 5.17121C19.3234 5.17121 21.6089 4.68045 23.3469 3.7875C23.5162 3.70037 23.7092 3.67381 23.8984 3.71012L29.5058 4.83524C29.8814 4.90945 30.1589 5.22895 30.1816 5.61114C30.5995 12.6616 30.2314 22.402 27.8198 26.6521C25.095 31.4507 20.0602 34.5872 17.3013 36.0302C17.1791 36.0942 17.0448 36.1255 16.9106 36.1255ZM5.29429 6.35886C4.93849 13.4192 5.32723 22.046 7.46875 25.8201C9.92197 30.1426 14.6279 33.088 16.9106 34.3267C19.1929 33.088 23.8985 30.1426 26.3528 25.8185C28.379 22.2488 28.9036 13.5954 28.5338 6.36063L23.8493 5.42164C21.9162 6.34894 19.4662 6.85793 16.9104 6.85793C14.3547 6.85793 11.9046 6.34894 9.97156 5.42164L5.29429 6.35886Z" fill="currentColor"/>
</svg>
