<svg width="40" height="40" viewBox="0 0 40 40" fill="none" xmlns="http://www.w3.org/2000/svg">
<path d="M9.66197 0.0593831C5.00469 0.593979 2.05634 3.43578 1.20188 8.219C0.948357 9.64459 0.929577 12.0925 1.16432 13.3774C1.31455 14.2215 1.62441 15.5345 1.74648 15.8534C1.79343 15.9753 1.71831 16.0035 1.26761 16.0035C0.403756 16.0035 0 16.3505 0 17.0914C0 17.3353 0.0751174 17.5041 0.2723 17.701C0.544601 17.9636 0.57277 17.973 1.53991 17.973H2.52582L3.53052 19.9145C6.08451 24.8384 6.44131 25.72 7.0892 28.6649C7.8216 31.9944 8.9108 34.5736 10.8075 37.4342C12.0469 39.3193 12.2066 39.4975 12.8169 39.7883C13.8967 40.3041 15.1831 39.8446 15.7277 38.766L15.9624 38.2877V34.6299C15.9624 32.6134 16 30.7189 16.0563 30.4094C16.4038 28.2523 18.338 26.2141 20.4413 26.5517C22.1784 26.8331 23.662 28.6837 23.9437 30.4094C24 30.7189 24.0376 32.6134 24.0376 34.6299V38.2877L24.2723 38.766C24.8169 39.8446 26.1033 40.3041 27.1831 39.7883C27.7934 39.4975 27.9531 39.3193 29.1362 37.528C31.1643 34.4517 32.1315 32.1726 32.9108 28.6649C33.5587 25.7106 33.9155 24.8384 36.4695 19.9145L37.4742 17.973H38.4601C39.4272 17.973 39.4554 17.9636 39.7277 17.701C39.9249 17.5041 40 17.3353 40 17.0914C40 16.3411 39.6056 16.0035 38.723 16.0035C38.2817 16.0035 38.2066 15.9753 38.2535 15.8534C38.3756 15.5345 38.6854 14.2215 38.8357 13.3774C39.0516 12.1863 39.0516 9.729 38.8357 8.45347C38.1221 4.13919 35.7371 1.31616 32.0469 0.378268C30.169 -0.100054 28.3005 -0.100057 26.0094 0.350129C24.169 0.715905 22.0376 1.55062 20.4413 2.51665L19.8873 2.85429L19.1268 2.44162C15.662 0.603358 12.2911 -0.240741 9.66197 0.0593831ZM13.5681 2.34783C15.3615 2.82615 16.4319 3.31385 21.1268 5.76174C22.4883 6.47453 23.7371 6.99975 24.0469 6.99975C24.3286 6.99975 24.7606 6.71838 24.8732 6.46515C25.0329 6.11813 24.9953 5.63981 24.7887 5.38658C24.6948 5.25528 24.4038 5.07708 24.1596 4.98329C23.9155 4.8895 23.3146 4.62689 22.8263 4.39242L21.9531 3.96099L22.7418 3.56708C23.7559 3.06062 25.2113 2.55416 26.3662 2.31031C27.6901 2.02895 29.7559 1.96329 30.8451 2.16963C34.8357 2.91994 37.0047 6.02434 36.9953 10.9858C36.9859 12.4676 36.7887 13.8276 36.385 15.1594L36.1221 16.0035H32.0657H28L27.9718 14.9905C27.9343 14.0433 27.9061 13.9307 27.5869 13.2648C27.1549 12.402 26.5352 11.7923 25.6526 11.3797L25.0235 11.0796H20H14.9765L14.3474 11.3797C13.4648 11.7923 12.8451 12.402 12.4131 13.2648C12.0939 13.9307 12.0657 14.0433 12.0282 14.9905L12 16.0035H7.93427H3.87793L3.61502 15.1594C3.21127 13.8276 3.01408 12.4676 3.00469 10.9858C2.99531 6.12751 5.07042 3.05124 8.92019 2.20714C10.1221 1.94454 12.2817 2.01019 13.5681 2.34783ZM24.6385 13.1148C25.1361 13.2648 25.7465 13.8745 25.8967 14.3715C26.0751 14.9905 26.0563 19.2861 25.8592 19.7363C25.6714 20.1958 25.2958 20.5804 24.8357 20.7961C24.4883 20.9555 24.1408 20.9743 19.9718 20.9743C15.7371 20.9743 15.4648 20.9649 15.1361 20.7961C14.6854 20.5616 14.3192 20.1771 14.1408 19.7363C14.0188 19.4549 13.9906 18.9484 13.9906 17.0633C13.9906 15.7033 14.0376 14.5873 14.0939 14.3715C14.216 13.9307 14.892 13.2367 15.3239 13.1054C15.8122 12.9647 24.1596 12.9741 24.6385 13.1148ZM12.0282 19.0047C12.1127 20.4209 12.4038 21.0868 13.3052 21.9309C14.4413 22.9813 14.77 23.0376 20 23.0376C25.23 23.0376 25.5587 22.9813 26.6948 21.9309C27.5962 21.0868 27.8873 20.4209 27.9718 19.0047L28.0282 18.0199L31.6244 17.9918C33.5962 17.9824 35.2113 18.0012 35.2113 18.0387C35.2113 18.0856 34.892 18.7046 34.4977 19.4268C33.0047 22.1841 32.6761 22.8313 32.2535 23.8817C31.7089 25.2417 31.3803 26.339 30.939 28.2898C30.2347 31.4598 29.2864 33.6733 27.4554 36.4306C25.9718 38.6816 26.0657 38.8504 26.0094 33.8702C25.9624 30.0999 25.9437 29.7998 25.7559 29.2558C24.9014 26.7141 22.5915 25.0072 20 25.0072C17.3803 25.0072 15.061 26.7423 14.216 29.3215C14.0657 29.7716 14.0376 30.3344 13.9906 33.8702C13.9343 38.8598 14.0376 38.691 12.507 36.3838C10.7418 33.7108 9.70892 31.3004 9.09859 28.4961C8.39437 25.1666 7.71831 23.4597 5.64319 19.6612C5.17371 18.8077 4.78873 18.0856 4.78873 18.0387C4.78873 18.0012 6.40376 17.9824 8.38498 17.9918L11.9718 18.0199L12.0282 19.0047Z" fill="currentColor"/>
</svg>
