<svg width="18" height="40" viewBox="0 0 18 40" fill="none" xmlns="http://www.w3.org/2000/svg">
<path d="M3.76933 40C1.69081 40 0 38.2342 0 36.0646C0 36.0256 2.00102e-06 35.9059 1.22281 18.7068C1.25511 18.252 1.63351 17.8998 2.08965 17.8998H5.48294C5.93944 17.8998 6.31839 18.2536 6.34959 18.7085C7.53792 35.9066 7.53792 36.0256 7.53792 36.0644C7.5381 38.2342 5.84748 40 3.76933 40ZM2.8992 19.6377C2.47372 25.6208 1.75375 35.7736 1.73715 36.1009C1.73806 37.2761 2.64942 38.2623 3.76951 38.2623C4.88959 38.2623 5.8004 37.2763 5.8004 36.0646C5.78508 35.7734 5.08555 25.6226 4.67229 19.6377H2.8992V19.6377Z" fill="currentColor"/>
<path d="M5.45883 19.6377C4.97898 19.6377 4.58999 19.2491 4.58999 18.7689C4.58999 17.5045 4.44785 17.3857 3.78591 17.3857C3.1236 17.3857 2.98147 17.5045 2.98147 18.7689C2.98147 19.2491 2.59248 19.6377 2.11262 19.6377C1.63277 19.6377 1.24377 19.2491 1.24377 18.7689C1.24377 17.9152 1.24377 15.648 3.78591 15.648C6.32768 15.648 6.32768 17.9152 6.32768 18.7689C6.32768 19.2491 5.93869 19.6377 5.45883 19.6377Z" fill="currentColor"/>
<path d="M3.78591 17.3857C3.30606 17.3857 2.91706 16.9971 2.91706 16.5169V7.67842L0.83818 5.59953C0.541145 5.3025 0.499178 4.83578 0.738011 4.49039L3.0716 1.11754C3.34401 0.722896 3.88571 0.623638 4.28036 0.897684C4.67501 1.171 4.7739 1.71235 4.50058 2.10681L2.57952 4.88321L4.40042 6.70411C4.56335 6.86704 4.65512 7.08763 4.65512 7.31843V16.5167C4.65476 16.9971 4.26576 17.3857 3.78591 17.3857Z" fill="currentColor"/>
<path d="M13.1255 40C11.0473 40 9.35669 38.2342 9.35669 36.0646C9.35669 36.0256 9.35669 35.9059 10.5793 18.7068C10.6116 18.252 10.99 17.8998 11.4462 17.8998H14.8394C15.2959 17.8998 15.6744 18.2536 15.7059 18.7085C16.8948 35.9066 16.8948 36.0256 16.8948 36.0644C16.8946 38.2342 15.2043 40 13.1255 40ZM12.2557 19.6377C11.8302 25.6208 11.1103 35.7736 11.0937 36.1009C11.0946 37.2761 12.0059 38.2623 13.1255 38.2623C14.2456 38.2623 15.1569 37.2763 15.1569 36.0646C15.1418 35.7734 14.4417 25.6226 14.0282 19.6377H12.2557V19.6377Z" fill="currentColor"/>
<path d="M14.815 19.6377C14.3355 19.6377 13.9459 19.2491 13.9459 18.7689C13.9459 17.5045 13.8044 17.3857 13.1424 17.3857C12.4797 17.3857 12.3376 17.5045 12.3376 18.7689C12.3376 19.2491 11.9484 19.6377 11.4686 19.6377C10.9887 19.6377 10.5997 19.2491 10.5997 18.7689C10.5997 17.9152 10.5997 15.648 13.1424 15.648C15.6838 15.648 15.6838 17.9152 15.6838 18.7689C15.6838 19.2491 15.2943 19.6377 14.815 19.6377Z" fill="currentColor"/>
<path d="M13.1425 17.3857C12.6622 17.3857 12.2731 16.9971 12.2731 16.5169V7.97361C12.2731 7.49339 12.6621 7.10477 13.1425 7.10477C13.6218 7.10477 14.0113 7.49339 14.0113 7.97361V16.5167C14.0113 16.9971 13.6218 17.3857 13.1425 17.3857Z" fill="currentColor"/>
<path d="M13.1255 8.84082C11.9442 8.84082 10.834 8.38176 9.9991 7.54685C8.27618 5.82339 8.27618 3.01815 9.9991 1.29396C10.8346 0.459781 11.9444 0 13.1255 0C14.3065 0 15.4165 0.459964 16.2514 1.29488C17.0864 2.12979 17.5463 3.23965 17.5463 4.42086C17.5463 5.60116 17.0864 6.71103 16.2514 7.54594C15.4165 8.38104 14.3057 8.84082 13.1255 8.84082ZM13.1255 1.73769C12.4084 1.73769 11.7346 2.01685 11.2277 2.52261C10.1825 3.5688 10.1819 5.27183 11.2277 6.31802C12.2409 7.33119 14.0098 7.33028 15.0228 6.3173C15.5302 5.8108 15.8086 5.137 15.8086 4.42069C15.8086 3.70364 15.5304 3.02983 15.0228 2.52334C14.5161 2.01685 13.8416 1.73769 13.1255 1.73769Z" fill="currentColor"/>
<path d="M9.86824 6.67638C9.64583 6.67638 9.4236 6.59154 9.25391 6.42167C8.91455 6.08231 8.91455 5.5324 9.25391 5.19303L13.8976 0.549751C14.2369 0.210386 14.7868 0.210386 15.1262 0.549751C15.4656 0.889116 15.4656 1.43903 15.1262 1.77839L10.4826 6.42149C10.3129 6.59136 10.0905 6.67638 9.86824 6.67638Z" fill="currentColor"/>
<path d="M11.739 8.54653C11.5166 8.54653 11.2943 8.46169 11.1246 8.29201C10.7853 7.95264 10.7853 7.40272 11.1246 7.06336L15.7679 2.41935C16.1073 2.07998 16.6572 2.07998 16.9966 2.41935C17.3359 2.75871 17.3359 3.30863 16.9966 3.648L12.3535 8.29219C12.1836 8.46169 11.9612 8.54653 11.739 8.54653Z" fill="currentColor"/>
</svg>
