<svg width="40" height="37" viewBox="0 0 40 37" fill="none" xmlns="http://www.w3.org/2000/svg">
<path d="M26.9894 21.4587C26.9058 21.4587 26.8208 21.4453 26.7373 21.4162C26.339 21.2766 26.1285 20.8409 26.2679 20.4426C26.891 18.6586 27.2984 16.9899 27.4147 15.7439C27.4505 15.3656 27.4684 14.9828 27.4684 14.6061C27.4684 10.8706 25.7537 7.39458 22.8823 5.3077C22.5411 5.05968 22.4652 4.58175 22.7134 4.24036C22.9611 3.89912 23.4382 3.82259 23.7808 4.07142C27.0462 6.44515 28.9965 10.3836 28.9965 14.6063C28.9965 15.0304 28.9757 15.4614 28.9368 15.8865C28.7727 17.637 28.1786 19.604 27.7102 20.947C27.5997 21.2617 27.3043 21.4587 26.9894 21.4587Z" fill="currentColor"/>
<path d="M8.40929 36.4644C7.84265 36.4644 7.20317 36.239 6.62674 35.8205C5.71277 35.1565 4.19815 33.4434 4.31831 29.4278C4.39708 26.8038 4.01991 24.9354 3.16514 23.7178C1.88634 21.8965 0.289574 18.0327 0.0444357 15.4017C0.0153977 15.0924 0 14.7794 0 14.4612C0 9.29665 3.92991 5.09497 8.76015 5.09497C10.6269 5.09497 11.5861 5.78739 12.3567 6.34392C12.9137 6.74612 13.227 6.95564 13.7179 6.95564C14.1914 6.95564 14.4655 6.76569 14.9919 6.37039C15.709 5.83215 16.6909 5.09497 18.6759 5.09497C19.0978 5.09497 19.4399 5.43701 19.4399 5.85894C19.4399 6.28087 19.0978 6.62291 18.6759 6.62291C17.2009 6.62291 16.5734 7.09377 15.9093 7.59255C15.3527 8.01031 14.7222 8.48375 13.7179 8.48375C12.7103 8.48375 12.0471 8.00518 11.462 7.58277C10.7785 7.08912 10.1328 6.62291 8.75999 6.62291C4.77248 6.62291 1.52794 10.1391 1.52794 14.4612C1.52794 14.7317 1.54109 14.998 1.56516 15.2615C1.77901 17.5473 3.2731 21.2133 4.41569 22.8405C5.46651 24.338 5.93401 26.5076 5.84529 29.4743C5.74309 32.8893 6.97311 34.1764 7.50654 34.571C7.85644 34.8308 8.16688 34.9165 8.34961 34.933C8.50892 34.4913 8.69101 33.3699 8.84133 32.4461C9.06288 31.0823 9.33899 29.3848 9.7837 27.7404C10.3773 25.5452 11.7642 24.1246 13.4032 24.0336C15.1033 23.9239 16.6942 25.3006 17.6321 27.6793C18.4194 29.6736 18.6876 31.8023 18.8838 33.3564C18.9542 33.916 19.0386 34.5845 19.1244 34.9293C19.3102 34.9047 19.6027 34.8136 19.9298 34.5712C20.4634 34.1765 21.6933 32.8896 21.5908 29.4745C21.502 26.508 21.9694 24.3381 23.02 22.8407C23.1938 22.5938 23.3796 22.2946 23.5729 21.9498C23.7792 21.5819 24.2448 21.4507 24.6129 21.6573C24.9808 21.8633 25.112 22.3289 24.9054 22.6974C24.6869 23.0876 24.4731 23.4307 24.2704 23.7195C23.4165 24.9357 23.0393 26.804 23.118 29.4281C23.2385 33.4437 21.7236 35.1568 20.8099 35.8208C20.0134 36.3984 19.0969 36.6087 18.4182 36.3648C17.69 36.103 17.5822 35.2493 17.3677 33.5481C17.182 32.0739 16.9272 30.0556 16.2109 28.2403C15.5266 26.5041 14.5161 25.5125 13.4882 25.5589C12.5292 25.6124 11.6749 26.6012 11.2589 28.1389C10.835 29.7071 10.5658 31.3621 10.3497 32.6916C9.97077 35.0217 9.79766 36.0849 9.01796 36.3648C8.8309 36.4317 8.62523 36.4644 8.40929 36.4644Z" fill="currentColor"/>
<path d="M28.11 23.7805C21.5543 23.7805 16.2203 18.4465 16.2203 11.89C16.2203 5.334 21.5543 0 28.11 0C34.6668 0 40 5.334 40 11.89C40 18.4466 34.6668 23.7805 28.11 23.7805ZM28.11 1.5281C22.3971 1.5281 17.7484 6.17642 17.7484 11.8902C17.7484 17.6039 22.3971 22.2525 28.11 22.2525C33.8237 22.2525 38.4721 17.6039 38.4721 11.8902C38.4721 6.17642 33.8237 1.5281 28.11 1.5281Z" fill="currentColor"/>
<path d="M28.11 21.3713C27.719 21.3713 27.328 21.3475 26.9476 21.3005C22.2056 20.7215 18.6292 16.6753 18.6292 11.8902C18.6292 6.66221 22.8828 2.40887 28.11 2.40887C33.3389 2.40887 37.5917 6.66205 37.5917 11.8902C37.5917 17.1183 33.3389 21.3713 28.11 21.3713ZM28.11 3.93698C23.7251 3.93698 20.1573 7.50479 20.1573 11.8902C20.1573 15.9043 23.1565 19.298 27.1341 19.7845C27.4533 19.8233 27.7817 19.8433 28.11 19.8433C32.4957 19.8433 36.0635 16.2754 36.0635 11.8902C36.0635 7.50495 32.4957 3.93698 28.11 3.93698Z" fill="currentColor"/>
<path d="M34.3551 36.1638C33.2447 36.1638 32.2614 35.417 31.963 34.3485L29.5948 25.3966C29.2293 24.088 30.0021 22.7144 31.3199 22.3443C31.5392 22.283 31.7644 22.2525 31.9898 22.2525C33.1002 22.2525 34.0835 22.9987 34.3835 24.0678L36.7516 33.0196C36.9277 33.6485 36.8456 34.3195 36.5204 34.8976C36.1952 35.4758 35.6639 35.893 35.0252 36.0712C34.8056 36.1325 34.5803 36.1638 34.3551 36.1638ZM31.9898 23.7804C31.9034 23.7804 31.8167 23.7925 31.7319 23.8156C31.2244 23.958 30.9275 24.4871 31.0693 24.9952L33.4374 33.9471C33.5717 34.429 34.1045 34.7409 34.6134 34.5999C34.8595 34.5312 35.064 34.37 35.1893 34.1478C35.3146 33.9256 35.346 33.6673 35.2774 33.421L32.9091 24.4692C32.7971 24.0678 32.4166 23.7804 31.9898 23.7804Z" fill="currentColor"/>
</svg>
